<svg width="58" height="39" viewBox="0 0 58 39" fill="none" xmlns="http://www.w3.org/2000/svg">
<path d="M57.1092 3.96479C57.1387 3.74523 57.1387 3.52264 57.1092 3.30308C57.0821 3.11808 57.0296 2.93779 56.9534 2.76741C56.871 2.61341 56.7772 2.46594 56.6728 2.32627C56.5541 2.12697 56.4071 1.94647 56.2363 1.79059L55.8622 1.57002C55.6822 1.43439 55.4823 1.32807 55.2698 1.25492H54.6463C54.4563 1.069 54.2344 0.919522 53.9916 0.813782H38.4032C37.5764 0.813782 36.7834 1.14576 36.1987 1.73669C35.614 2.32762 35.2856 3.12909 35.2856 3.96479C35.2856 4.80049 35.614 5.60196 36.1987 6.19289C36.7834 6.78382 37.5764 7.1158 38.4032 7.1158H47.2262L34.7556 21.957L21.2873 13.859C20.6493 13.4755 19.897 13.3346 19.1655 13.4617C18.4339 13.5888 17.7713 13.9754 17.2967 14.5522L1.70833 33.4582C1.44582 33.7766 1.24803 34.1443 1.1263 34.54C1.00458 34.9358 0.961298 35.352 0.998946 35.7647C1.03659 36.1774 1.15443 36.5785 1.34571 36.9451C1.53698 37.3118 1.79794 37.6366 2.11363 37.9012C2.67453 38.3709 3.38048 38.6273 4.10893 38.6259C4.56695 38.6266 5.01951 38.5254 5.43442 38.3293C5.84933 38.1333 6.2164 37.8472 6.50953 37.4915L20.3831 20.6651L33.6956 28.7317C34.327 29.1102 35.0703 29.2514 35.7946 29.1304C36.5189 29.0093 37.1777 28.6338 37.655 28.07L50.8739 12.4725V19.7198C50.8739 20.5555 51.2024 21.357 51.787 21.9479C52.3717 22.5389 53.1647 22.8708 53.9916 22.8708C54.8184 22.8708 55.6114 22.5389 56.1961 21.9479C56.7808 21.357 57.1092 20.5555 57.1092 19.7198V3.96479Z" fill="#1A9AFB"/>
</svg>
